HIERARCHY
ROOT joint_0
{
	OFFSET 0.000000 0.000000 0.000000
	CHANNELS 6 Xposition Yposition Zposition Zrotation Yrotation Xrotation 
	JOINT joint_1
	{
		OFFSET 0.511002 1.944000 108.288940
		CHANNELS 3 Zrotation Yrotation Xrotation
		JOINT joint_2
		{
			OFFSET -9.074005 1.512993 98.440063
			CHANNELS 3 Zrotation Yrotation Xrotation
			JOINT joint_3
			{
				OFFSET -8.590996 1.815002 98.366943
				CHANNELS 3 Zrotation Yrotation Xrotation
				JOINT joint_4
				{
					OFFSET 2.489998 3.531998 136.462036
					CHANNELS 3 Zrotation Yrotation Xrotation
					JOINT joint_5
					{
						OFFSET 22.708000 2.955002 80.357056
						CHANNELS 3 Zrotation Yrotation Xrotation
						End Site
						{
							OFFSET 0.000000 0.000000 0.000000
						}
					}
				}
				JOINT joint_6
				{
					OFFSET 2.860001 -27.684998 77.234009
					CHANNELS 3 Zrotation Yrotation Xrotation
					JOINT joint_7
					{
						OFFSET 5.449997 -131.244003 -18.851929
						CHANNELS 3 Zrotation Yrotation Xrotation
						JOINT joint_8
						{
							OFFSET 35.757000 -24.661995 -264.074097
							CHANNELS 3 Zrotation Yrotation Xrotation
							JOINT joint_9
							{
								OFFSET 49.392001 -1.747002 -239.960938
								CHANNELS 3 Zrotation Yrotation Xrotation
								End Site
								{
									OFFSET 0.000000 0.000000 0.000000
								}
							}
						}
					}
				}
				JOINT joint_10
				{
					OFFSET -0.127998 31.625000 75.753052
					CHANNELS 3 Zrotation Yrotation Xrotation
					JOINT joint_11
					{
						OFFSET -5.618004 131.132996 -19.557007
						CHANNELS 3 Zrotation Yrotation Xrotation
						JOINT joint_12
						{
							OFFSET 46.488998 30.127991 -261.826050
							CHANNELS 3 Zrotation Yrotation Xrotation
							JOINT joint_13
							{
								OFFSET 66.021003 0.474030 -235.934937
								CHANNELS 3 Zrotation Yrotation Xrotation
								End Site
								{
									OFFSET 0.000000 0.000000 0.000000
								}
							}
						}
					}
				}
			}
		}
	}
	JOINT joint_14
	{
		OFFSET 15.887001 -78.871004 -94.561035
		CHANNELS 3 Zrotation Yrotation Xrotation
		JOINT joint_15
		{
			OFFSET -4.133003 6.714001 -473.615967
			CHANNELS 3 Zrotation Yrotation Xrotation
			JOINT joint_16
			{
				OFFSET -19.541000 5.340000 -399.613007
				CHANNELS 3 Zrotation Yrotation Xrotation
				JOINT joint_17
				{
					OFFSET 164.317001 41.657999 -73.195000
					CHANNELS 3 Zrotation Yrotation Xrotation
					End Site
					{
						OFFSET 0.000000 0.000000 0.000000
					}
				}
			}
		}
	}
	JOINT joint_18
	{
		OFFSET 6.513000 77.960991 -96.406982
		CHANNELS 3 Zrotation Yrotation Xrotation
		JOINT joint_19
		{
			OFFSET -10.660004 -8.518997 -473.485016
			CHANNELS 3 Zrotation Yrotation Xrotation
			JOINT joint_20
			{
				OFFSET -36.967995 -11.098999 -398.260010
				CHANNELS 3 Zrotation Yrotation Xrotation
				JOINT joint_21
				{
					OFFSET 166.067997 30.363998 -74.785000
					CHANNELS 3 Zrotation Yrotation Xrotation
					End Site
					{
						OFFSET 0.000000 0.000000 0.000000
					}
				}
			}
		}
	}
}
MOTION
Frames: 13
Frame Time: 0.016667
-2144.928223 861.139160 1061.078979 -1.882699 -2.831845 0.361561 0.123715 0.061053 0.696927 0.050326 -0.001392 -0.151174 0.073356 -0.000016 0.106555 -0.103136 4.713760 -0.228706 0.000000 0.000000 0.000000 5.043020 -0.702029 0.631109 0.012709 -0.123754 -2.837747 0.090899 4.248559 0.720334 0.000000 0.000000 0.000000 -3.586006 1.028650 -2.152153 0.327911 1.714442 0.269374 1.182131 3.283379 4.063842 0.000000 0.000000 0.000000 -3.001673 -0.474895 -0.607371 -2.970891 1.911878 -0.818835 -3.026010 -1.569920 -0.943371 0.000000 0.000000 0.000000 -0.590755 -1.960098 1.756877 -0.577245 -0.354766 -0.660495 -0.668532 4.173742 -1.063280 0.000000 0.000000 0.000000 
-2145.392090 861.239807 1061.068970 -1.947828 -2.858041 0.364232 0.118452 0.117738 0.720419 0.043970 -0.008872 -0.158227 0.067697 0.012369 0.110890 -0.110868 4.873126 -0.220244 0.000000 0.000000 0.000000 5.040396 -0.728753 0.643156 0.010970 -0.152487 -2.870247 0.104415 4.188891 0.778596 0.000000 0.000000 0.000000 -3.582536 1.046075 -2.145859 0.364669 1.741067 0.372124 1.245662 3.369835 4.277627 0.000000 0.000000 0.000000 -3.000258 -0.489581 -0.617909 -2.969012 1.951501 -0.818006 -3.027676 -1.672171 -0.918085 0.000000 0.000000 0.000000 -0.561137 -1.970339 1.754010 -0.548813 -0.310252 -0.661726 -0.639638 4.126972 -1.041786 0.000000 0.000000 0.000000 
-2145.835938 861.350342 1061.061035 -2.009267 -2.877679 0.367486 0.114813 0.178154 0.744386 0.039432 -0.017744 -0.164074 0.063730 0.025447 0.115381 -0.116515 5.006722 -0.216014 0.000000 0.000000 0.000000 5.038922 -0.751254 0.654052 0.010556 -0.176320 -2.887278 0.115662 4.134842 0.826746 0.000000 0.000000 0.000000 -3.581217 1.061445 -2.139893 0.399622 1.765497 0.469980 1.299980 3.430238 4.460158 0.000000 0.000000 0.000000 -2.998026 -0.509311 -0.626243 -2.966346 1.982828 -0.820120 -3.027666 -1.739130 -0.901005 0.000000 0.000000 0.000000 -0.532096 -1.985752 1.749228 -0.521103 -0.267435 -0.662552 -0.611401 4.075640 -1.019750 0.000000 0.000000 0.000000 
-2146.243408 861.470215 1061.056030 -2.066430 -2.888658 0.371485 0.112691 0.237623 0.770056 0.036194 -0.027547 -0.170535 0.061102 0.039364 0.119979 -0.119266 5.112695 -0.218671 0.000000 0.000000 0.000000 5.041575 -0.767866 0.661180 0.011973 -0.192768 -2.880294 0.122413 4.090189 0.854154 0.000000 0.000000 0.000000 -3.578152 1.076032 -2.132694 0.432439 1.788291 0.562498 1.343702 3.462070 4.607184 0.000000 0.000000 0.000000 -2.991875 -0.533356 -0.629634 -2.959883 1.995970 -0.826995 -3.022095 -1.738893 -0.898501 0.000000 0.000000 0.000000 -0.504254 -2.005098 1.741163 -0.494714 -0.230669 -0.660384 -0.584238 4.016165 -0.996700 0.000000 0.000000 0.000000 
-2146.629883 861.601990 1061.052979 -2.121082 -2.892934 0.376025 0.112730 0.300097 0.798122 0.034945 -0.038049 -0.177576 0.060486 0.053398 0.124368 -0.119688 5.193907 -0.226657 0.000000 0.000000 0.000000 5.045627 -0.780018 0.667573 0.014659 -0.204057 -2.857896 0.126781 4.051222 0.870777 0.000000 0.000000 0.000000 -3.577848 1.089173 -2.124289 0.463351 1.809468 0.649140 1.378009 3.466505 4.722786 0.000000 0.000000 0.000000 -2.984674 -0.562577 -0.630956 -2.952402 2.000852 -0.836563 -3.014607 -1.703685 -0.904015 0.000000 0.000000 0.000000 -0.476640 -2.029357 1.731019 -0.468698 -0.196014 -0.657441 -0.557374 3.952267 -0.972973 0.000000 0.000000 0.000000 
-2146.995850 861.742615 1061.048950 -2.171502 -2.891919 0.380390 0.113955 0.362839 0.827610 0.034894 -0.047723 -0.183106 0.060883 0.067898 0.128168 -0.118362 5.251220 -0.238064 0.000000 0.000000 0.000000 5.049397 -0.787769 0.675169 0.017985 -0.210977 -2.831964 0.131780 4.016924 0.891230 0.000000 0.000000 0.000000 -3.578360 1.098398 -2.119370 0.490796 1.826039 0.725462 1.405514 3.456571 4.815649 0.000000 0.000000 0.000000 -2.979697 -0.596252 -0.633825 -2.947129 2.007478 -0.844898 -3.009449 -1.676238 -0.908595 0.000000 0.000000 0.000000 -0.451669 -2.058850 1.720830 -0.445360 -0.164310 -0.656650 -0.533523 3.903944 -0.953451 0.000000 0.000000 0.000000 
-2147.343994 861.895874 1061.042969 -2.220379 -2.885633 0.383411 0.117169 0.427319 0.862425 0.036297 -0.056927 -0.189889 0.062929 0.082140 0.132755 -0.114899 5.282688 -0.254029 0.000000 0.000000 0.000000 5.053894 -0.790006 0.684737 0.021577 -0.212400 -2.806125 0.138503 3.985552 0.920720 0.000000 0.000000 0.000000 -3.578661 1.104307 -2.118082 0.514544 1.838332 0.789312 1.426004 3.430357 4.885239 0.000000 0.000000 0.000000 -2.978066 -0.634811 -0.638625 -2.945148 2.019810 -0.850788 -3.008217 -1.676762 -0.907824 0.000000 0.000000 0.000000 -0.429241 -2.094951 1.712009 -0.424615 -0.134545 -0.658800 -0.512751 3.880967 -0.939956 0.000000 0.000000 0.000000 
-2147.672119 862.059021 1061.035034 -2.265929 -2.874571 0.386169 0.121787 0.493741 0.900101 0.038844 -0.065670 -0.197276 0.066261 0.094792 0.137933 -0.109564 5.291811 -0.274055 0.000000 0.000000 0.000000 5.059381 -0.787228 0.695037 0.025758 -0.208612 -2.776246 0.145658 3.959135 0.953060 0.000000 0.000000 0.000000 -3.579392 1.107076 -2.119464 0.534713 1.846632 0.841269 1.439826 3.389182 4.932778 0.000000 0.000000 0.000000 -2.978390 -0.677206 -0.644971 -2.945118 2.033604 -0.855312 -3.009049 -1.685010 -0.906010 0.000000 0.000000 0.000000 -0.409290 -2.135466 1.703165 -0.406363 -0.108110 -0.662873 -0.494806 3.873746 -0.930614 0.000000 0.000000 0.000000 
-2147.965088 862.223328 1061.026001 -2.301713 -2.860977 0.391021 0.125047 0.556415 0.936085 0.039975 -0.073680 -0.205638 0.068238 0.108039 0.142811 -0.103611 5.290385 -0.295029 0.000000 0.000000 0.000000 5.064838 -0.781781 0.709245 0.030271 -0.202377 -2.746545 0.152632 3.940896 0.985391 0.000000 0.000000 0.000000 -3.580845 1.105116 -2.124916 0.550525 1.849248 0.879963 1.449959 3.347063 4.967867 0.000000 0.000000 0.000000 -2.980512 -0.719368 -0.655131 -2.946999 2.044698 -0.857619 -3.011281 -1.682264 -0.907611 0.000000 0.000000 0.000000 -0.393345 -2.173779 1.692513 -0.391869 -0.090787 -0.669135 -0.480995 3.873782 -0.924447 0.000000 0.000000 0.000000 
-2148.218750 862.385193 1061.015015 -2.323302 -2.845205 0.399735 0.125472 0.616536 0.966010 0.038870 -0.082411 -0.212518 0.067843 0.120549 0.147650 -0.097252 5.282623 -0.316722 0.000000 0.000000 0.000000 5.070841 -0.772134 0.726396 0.035162 -0.192009 -2.716160 0.159522 3.931516 1.018288 0.000000 0.000000 0.000000 -3.584440 1.097912 -2.135445 0.561583 1.845775 0.903449 1.457880 3.309330 4.995373 0.000000 0.000000 0.000000 -2.984863 -0.759708 -0.672326 -2.951326 2.050921 -0.854939 -3.015106 -1.664019 -0.913860 0.000000 0.000000 0.000000 -0.383014 -2.207076 1.678578 -0.382577 -0.087500 -0.678362 -0.472908 3.880777 -0.922106 0.000000 0.000000 0.000000 
-2148.436279 862.548279 1061.001953 -2.335598 -2.827272 0.410773 0.124699 0.673288 0.993314 0.036705 -0.090629 -0.219203 0.066319 0.133507 0.151923 -0.090163 5.264155 -0.339741 0.000000 0.000000 0.000000 5.076645 -0.759715 0.746838 0.040479 -0.179082 -2.685467 0.166219 3.930828 1.051133 0.000000 0.000000 0.000000 -3.589146 1.086064 -2.149414 0.568201 1.836686 0.912580 1.462276 3.270279 5.011073 0.000000 0.000000 0.000000 -2.990863 -0.799228 -0.693643 -2.957424 2.054235 -0.849974 -3.020185 -1.634858 -0.923440 0.000000 0.000000 0.000000 -0.376407 -2.237636 1.662452 -0.376752 -0.093421 -0.689620 -0.468668 3.895512 -0.922899 0.000000 0.000000 0.000000 
-2148.618652 862.710510 1060.983032 -2.343793 -2.810723 0.422292 0.123134 0.727187 1.018527 0.033837 -0.099854 -0.226122 0.064187 0.145326 0.156964 -0.083223 5.244715 -0.362042 0.000000 0.000000 0.000000 5.083510 -0.746824 0.768061 0.045747 -0.165565 -2.654936 0.171648 3.935877 1.078284 0.000000 0.000000 0.000000 -3.592419 1.071659 -2.167398 0.570891 1.823878 0.909380 1.463238 3.230899 5.015215 0.000000 0.000000 0.000000 -2.996837 -0.835917 -0.713571 -2.963477 2.056694 -0.848105 -3.025003 -1.591182 -0.936588 0.000000 0.000000 0.000000 -0.371343 -2.264626 1.645161 -0.372392 -0.100359 -0.700152 -0.465814 3.911943 -0.924621 0.000000 0.000000 0.000000 
-2148.757812 862.872681 1060.958008 -2.350144 -2.796197 0.433633 0.121482 0.771923 1.042591 0.030773 -0.104599 -0.231831 0.061717 0.154668 0.160478 -0.076856 5.224659 -0.382141 0.000000 0.000000 0.000000 5.091696 -0.733732 0.791338 0.051043 -0.151748 -2.624400 0.175228 3.949313 1.097064 0.000000 0.000000 0.000000 -3.593645 1.054347 -2.189381 0.569356 1.806808 0.892886 1.461558 3.194698 5.010362 0.000000 0.000000 0.000000 -3.002350 -0.868476 -0.729313 -2.969000 2.057219 -0.852559 -3.029173 -1.530087 -0.953868 0.000000 0.000000 0.000000 -0.366958 -2.287142 1.626596 -0.368668 -0.107236 -0.708505 -0.463374 3.929141 -0.926671 0.000000 0.000000 0.000000 
